<svg width="2642" height="1279" xmlns="http://www.w3.org/2000/svg" xmlns:xlink="http://www.w3.org/1999/xlink" xml:space="preserve" overflow="hidden"><g transform="translate(-209 -462)"><g><g><g><path d="M147.266 128.172C144.016 124.922 139.141 123.297 134.672 124.312L125.531 115.375C133.656 104.812 138.125 91.8125 138.125 78.4062 138.328 44.4844 110.906 17.0625 77.1875 16.8594 43.4687 16.6562 16.0469 44.0781 15.8437 77.7968 15.6406 111.516 43.0625 138.937 76.7812 139.141 90.1875 139.141 103.391 134.672 114.156 126.547L123.094 135.484C122.281 140.156 123.703 144.828 126.953 148.281L152.344 173.672C157.828 179.156 166.969 179.156 172.453 173.672 177.937 168.187 177.937 159.047 172.453 153.562L147.266 128.172ZM77.1875 126.953C50.1719 126.953 28.4375 105.219 28.4375 78.2031 28.4375 51.1875 50.1719 29.4531 77.1875 29.4531 104.203 29.4531 125.937 51.1875 125.937 78.2031 125.937 105.016 104 126.953 77.1875 126.953Z" fill="#321E2D" transform="matrix(1.06667 0 0 1 1730 575)"/><path d="M120.859 75.1562 109.281 75.1562C108.266 75.3593 107.25 75.9687 106.641 76.7812L98.9218 85.1093 92.4218 62.5625C91.8125 60.7343 89.7812 59.5156 87.9531 60.125 86.9375 60.5312 85.9218 61.1406 85.5156 62.3593L73.3281 94.6562 65 49.9687C64.5937 47.9375 62.7656 46.7187 60.9375 47.125 59.7187 47.3281 58.7031 48.3437 58.0937 49.5625L49.3594 75.1562 33.5156 75.1562 33.5156 83.2812 52 83.2812C53.625 83.0781 55.0468 81.8593 55.4531 80.2343L60.5312 64.7968 68.6562 108.469C68.8593 110.094 70.2812 111.312 71.9062 111.312L72.3125 111.312C73.7343 111.312 75.1562 110.5 75.7656 109.078L88.7656 74.9531 94.0468 93.2343C94.6562 95.0625 96.4843 96.2812 98.5156 95.6718 99.125 95.4687 99.7343 95.0625 100.141 94.6562L111.109 83.2812 121.062 83.2812 121.062 75.1562Z" fill="#321E2D" transform="matrix(1.06667 0 0 1 1730 575)"/></g></g></g><g><g><g><path d="M158.333 37.5C158.333 46.7048 132.217 54.1667 100 54.1667 67.7834 54.1667 41.6667 46.7048 41.6667 37.5 41.6667 28.2953 67.7834 20.8333 100 20.8333 132.217 20.8333 158.333 28.2953 158.333 37.5Z" stroke="#0070C0" stroke-width="2.08348" fill="#0070C0" transform="matrix(1.07 0 0 1 1022 925)"/><path d="M141.667 79.1667C139.167 79.1667 137.5 77.5 137.5 75 137.5 72.5 139.167 70.8334 141.667 70.8334 144.167 70.8334 145.833 72.5 145.833 75 145.833 77.5 144.167 79.1667 141.667 79.1667ZM100 62.5C67.9167 62.5 41.6667 55 41.6667 45.8333L41.6667 79.1667C41.6667 88.3334 67.9167 95.8334 100 95.8334 132.083 95.8334 158.333 88.3334 158.333 79.1667L158.333 45.8333C158.333 55 132.083 62.5 100 62.5Z" stroke="#0070C0" stroke-width="2.08348" fill="#0070C0" transform="matrix(1.07 0 0 1 1022 925)"/><path d="M141.667 120.833C139.167 120.833 137.5 119.167 137.5 116.667 137.5 114.167 139.167 112.5 141.667 112.5 144.167 112.5 145.833 114.167 145.833 116.667 145.833 119.167 144.167 120.833 141.667 120.833ZM100 104.167C67.9167 104.167 41.6667 96.6667 41.6667 87.5L41.6667 120.833C41.6667 130 67.9167 137.5 100 137.5 132.083 137.5 158.333 130 158.333 120.833L158.333 87.5C158.333 96.6667 132.083 104.167 100 104.167Z" stroke="#0070C0" stroke-width="2.08348" fill="#0070C0" transform="matrix(1.07 0 0 1 1022 925)"/><path d="M141.667 162.5C139.167 162.5 137.5 160.833 137.5 158.333 137.5 155.833 139.167 154.167 141.667 154.167 144.167 154.167 145.833 155.833 145.833 158.333 145.833 160.833 144.167 162.5 141.667 162.5ZM100 145.833C67.9167 145.833 41.6667 138.333 41.6667 129.167L41.6667 162.5C41.6667 171.667 67.9167 179.167 100 179.167 132.083 179.167 158.333 171.667 158.333 162.5L158.333 129.167C158.333 138.333 132.083 145.833 100 145.833Z" stroke="#0070C0" stroke-width="2.08348" fill="#0070C0" transform="matrix(1.07 0 0 1 1022 925)"/></g></g></g><g><g><g><path d="M139.073 114.353C138.881 109.232 136.506 104.438 132.549 101.182 128.487 97.856 124.017 95.0624 119.247 92.8691 116.441 91.5241 113.318 90.2144 109.892 88.917 113.489 81.9721 122.409 61.6551 112.679 46.9415L112.679 45.7709 114.44 45.7709C116.384 45.7709 117.96 44.1946 117.96 42.25 117.96 40.3055 116.384 38.7292 114.44 38.7292L112.679 38.7292C112.066 29.0076 106.474 20.2929 97.8916 15.6853L95.0749 26.8288C94.8763 27.6336 94.1431 28.1908 93.3145 28.1667L92.892 28.1667C91.9403 27.9676 91.3301 27.0347 91.5292 26.0832 91.5292 26.0829 91.5294 26.0827 91.5294 26.0824 91.5294 26.0489 91.5453 26.0172 91.5541 25.9838L94.8989 12.7982C94.3111 10.4549 92.2079 8.8092 89.7919 8.80209L79.2294 8.80209C76.8141 8.81001 74.712 10.4555 74.1242 12.7982L77.469 25.9838C77.724 26.9203 77.1727 27.8866 76.2367 28.1438L76.131 28.1667 75.7085 28.1667C74.8799 28.1908 74.1467 27.6336 73.9481 26.8288L71.2195 15.6853C62.6373 20.2929 57.0449 29.0076 56.432 38.7292L54.5835 38.7292C52.639 38.7292 51.0627 40.3055 51.0627 42.25 51.0627 44.1946 52.639 45.7709 54.5835 45.7709L56.3439 45.7709 56.3439 46.9451C46.6071 61.671 55.5518 82.0073 59.143 88.9346L54.8529 90.695 50.6173 92.4906C45.5332 94.7457 40.7727 97.6692 36.4618 101.184 32.485 104.457 30.1051 109.28 29.9271 114.427L29.9412 145.358 31.508 146.402C34.9373 148.69 40.59 150.51 47.5278 151.885L47.5278 140.833 80.9757 140.833 80.9757 154.984C82.3171 155.005 83.6603 155.015 85.0053 155.015 86.0105 155.015 87.0139 155.003 88.0174 154.991L88.0174 140.833 121.465 140.833 121.465 152.021C128.683 150.613 134.441 148.703 137.661 146.291L139.07 145.234ZM63.375 58.0938 63.375 57.8632C68.8323 57.159 83.4227 54.5184 88.4064 45.7709L89.5613 45.7709C95.5537 49.0731 100.974 53.3217 105.611 58.3526 105.247 70.0139 95.4985 79.1722 83.8371 78.8081 72.5873 78.4569 63.5884 69.3471 63.375 58.0938ZM80.9792 133.792 48.0911 133.792 53.5713 98.8228 68.4662 92.723C68.5982 92.6684 68.7179 92.5927 68.8464 92.5329L80.988 121.469ZM84.5001 93.3022C79.8415 93.346 75.2026 92.6932 70.7371 91.3657 72.7625 89.6965 73.933 87.2074 73.927 84.5828L73.927 84.185C80.6999 86.9523 88.288 86.9523 95.0608 84.185L95.0608 84.5758C95.0545 87.2097 96.2322 89.7072 98.2683 91.378 93.7993 92.6968 89.1594 93.3451 84.5001 93.3022ZM88.0297 133.792 88.0297 121.469 100.168 92.5452C100.286 92.5998 100.391 92.6684 100.52 92.7212L115.591 98.9795 120.941 133.792Z" fill="#0070C0" transform="matrix(1.071 0 0 1 882 1263)"/></g></g></g><g><g><g><path d="M145.208 123.958 24.7916 123.958 24.7916 46.0416 145.208 46.0416 145.208 123.958ZM93.8541 131.042 76.1457 131.042C75.0832 131.042 74.3749 130.333 74.3749 129.271 74.3749 128.208 75.0832 127.5 76.1457 127.5L93.8541 127.5C94.9165 127.5 95.6249 128.208 95.6249 129.271 95.6249 130.333 94.9165 131.042 93.8541 131.042ZM84.9999 38.9583C86.0624 38.9583 86.7707 39.6666 86.7707 40.7291 86.7707 41.7916 86.0624 42.5 84.9999 42.5 83.9374 42.5 83.2291 41.7916 83.2291 40.7291 83.2291 39.6666 83.9374 38.9583 84.9999 38.9583ZM148.75 35.4166 21.25 35.4166C17.3541 35.4166 14.1666 38.6041 14.1666 42.5L14.1666 127.5C14.1666 131.396 17.3541 134.583 21.25 134.583L148.75 134.583C152.646 134.583 155.833 131.396 155.833 127.5L155.833 42.5C155.833 38.6041 152.646 35.4166 148.75 35.4166Z" fill="#0070C0" transform="matrix(1.06471 0 0 1 1051 1256)"/></g></g></g><g><g><g><path d="M116.188 84.5001C116.188 86.4365 114.603 88.0209 112.667 88.0209L56.3334 88.0209C54.3969 88.0209 52.8125 86.4365 52.8125 84.5001L52.8125 49.2917C52.8125 45.4188 55.9813 42.25 59.8542 42.25L73.9376 42.25C73.9376 40.3136 75.5219 38.7292 77.4584 38.7292L91.5417 38.7292C93.4782 38.7292 95.0626 40.3136 95.0626 42.25L109.146 42.25C113.019 42.25 116.188 45.4188 116.188 49.2917L116.188 84.5001ZM110.906 126.75C107.914 126.75 105.625 124.462 105.625 121.469 105.625 118.476 107.914 116.188 110.906 116.188 113.899 116.188 116.188 118.476 116.188 121.469 116.188 124.462 113.899 126.75 110.906 126.75ZM58.0938 126.75C55.1011 126.75 52.8125 124.462 52.8125 121.469 52.8125 118.476 55.1011 116.188 58.0938 116.188 61.0865 116.188 63.375 118.476 63.375 121.469 63.375 124.462 61.0865 126.75 58.0938 126.75ZM112.667 31.6875 88.0209 31.6875 88.0209 21.125 105.625 21.125 105.625 14.0833 63.375 14.0833 63.375 21.125 80.9792 21.125 80.9792 31.6875 56.3334 31.6875C48.5875 31.6875 42.25 38.025 42.25 45.7709L42.25 126.75C42.25 132.559 47.0032 137.313 52.8125 137.313L54.3969 137.313 46.475 154.917 54.2209 154.917 62.1428 137.313 106.857 137.313 114.779 154.917 122.525 154.917 114.603 137.313 116.188 137.313C121.997 137.313 126.75 132.559 126.75 126.75L126.75 45.7709C126.75 38.025 120.413 31.6875 112.667 31.6875Z" transform="matrix(1.07101 0 0 1 1232 1177)"/></g></g></g><g><g><g><path d="M116.875 84.9999C116.875 86.9478 115.281 88.5416 113.333 88.5416L56.6666 88.5416C54.7187 88.5416 53.1249 86.9478 53.1249 84.9999L53.1249 49.5833C53.1249 45.6874 56.3124 42.5 60.2083 42.5L74.3749 42.5C74.3749 40.552 75.9687 38.9583 77.9166 38.9583L92.0832 38.9583C94.0311 38.9583 95.6249 40.552 95.6249 42.5L109.792 42.5C113.687 42.5 116.875 45.6874 116.875 49.5833L116.875 84.9999ZM111.562 127.5C108.552 127.5 106.25 125.198 106.25 122.187 106.25 119.177 108.552 116.875 111.562 116.875 114.573 116.875 116.875 119.177 116.875 122.187 116.875 125.198 114.573 127.5 111.562 127.5ZM58.4374 127.5C55.427 127.5 53.1249 125.198 53.1249 122.187 53.1249 119.177 55.427 116.875 58.4374 116.875 61.4478 116.875 63.7499 119.177 63.7499 122.187 63.7499 125.198 61.4478 127.5 58.4374 127.5ZM113.333 31.875 88.5416 31.875 88.5416 21.25 106.25 21.25 106.25 14.1666 63.7499 14.1666 63.7499 21.25 81.4582 21.25 81.4582 31.875 56.6666 31.875C48.8749 31.875 42.5 38.25 42.5 46.0416L42.5 127.5C42.5 133.344 47.2812 138.125 53.1249 138.125L54.7187 138.125 46.7499 155.833 54.5416 155.833 62.5103 138.125 107.489 138.125 115.458 155.833 123.25 155.833 115.281 138.125 116.875 138.125C122.719 138.125 127.5 133.344 127.5 127.5L127.5 46.0416C127.5 38.25 121.125 31.875 113.333 31.875Z" transform="matrix(1.06471 0 0 1 1232 1336)"/></g></g></g><g><g><g><path d="M116.187 84.4999C116.187 86.4363 114.603 88.0207 112.667 88.0207L56.3333 88.0207C54.3968 88.0207 52.8124 86.4363 52.8124 84.4999L52.8124 49.2916C52.8124 45.4187 55.9812 42.2499 59.8541 42.2499L73.9374 42.2499C73.9374 40.3135 75.5218 38.7291 77.4582 38.7291L91.5415 38.7291C93.478 38.7291 95.0624 40.3135 95.0624 42.2499L109.146 42.2499C113.019 42.2499 116.187 45.4187 116.187 49.2916L116.187 84.4999ZM110.906 126.75C107.913 126.75 105.625 124.461 105.625 121.469 105.625 118.476 107.913 116.187 110.906 116.187 113.899 116.187 116.187 118.476 116.187 121.469 116.187 124.461 113.899 126.75 110.906 126.75ZM58.0937 126.75C55.101 126.75 52.8124 124.461 52.8124 121.469 52.8124 118.476 55.101 116.187 58.0937 116.187 61.0864 116.187 63.3749 118.476 63.3749 121.469 63.3749 124.461 61.0864 126.75 58.0937 126.75ZM112.667 31.6875 88.0207 31.6875 88.0207 21.125 105.625 21.125 105.625 14.0833 63.3749 14.0833 63.3749 21.125 80.9791 21.125 80.9791 31.6875 56.3333 31.6875C48.5874 31.6875 42.2499 38.0249 42.2499 45.7708L42.2499 126.75C42.2499 132.559 47.0031 137.312 52.8124 137.312L54.3968 137.312 46.4749 154.916 54.2208 154.916 62.1426 137.312 106.857 137.312 114.779 154.916 122.525 154.916 114.603 137.312 116.187 137.312C121.997 137.312 126.75 132.559 126.75 126.75L126.75 45.7708C126.75 38.0249 120.412 31.6875 112.667 31.6875Z" transform="matrix(1.07101 0 0 1 1340 1245)"/></g></g></g><g><g><g><path d="M19.8854 17.2916 29.3958 17.2916 29.3958 22.4791 53.6041 22.4791 53.6041 17.2916 63.1145 17.2916 63.1145 70.8957 19.8854 70.8957 19.8854 17.2916ZM41.5864 10.375C42.9697 10.375 44.0937 11.5854 44.0937 12.9687 44.0937 14.4385 42.9697 15.5625 41.4999 15.5625 40.0301 15.5625 38.9062 14.4385 38.9062 12.9687 38.9062 11.4989 40.0301 10.375 41.5864 10.375ZM14.6979 15.5625 14.6979 72.6249C14.6979 74.5269 16.2541 76.0832 18.1562 76.0832L64.8436 76.0832C66.7457 76.0832 68.3019 74.5269 68.3019 72.6249L68.3019 15.5625C68.3019 13.6604 66.7457 12.1041 64.8436 12.1041L50.1457 12.1041 50.1457 10.375C50.1457 8.4729 48.5895 6.91665 46.6874 6.91665L36.3124 6.91665C34.4103 6.91665 32.8541 8.4729 32.8541 10.375L32.8541 12.1041 18.1562 12.1041C16.2541 12.1041 14.6979 13.6604 14.6979 15.5625Z" fill="#0070C0" transform="matrix(1.07229 0 0 1 1098 1300)"/><path d="M25.0729 29.3958 39.7708 29.3958 39.7708 32.8541 25.0729 32.8541Z" fill="#0070C0" transform="matrix(1.07229 0 0 1 1098 1300)"/><path d="M25.0729 39.7708 39.7708 39.7708 39.7708 43.2291 25.0729 43.2291Z" fill="#0070C0" transform="matrix(1.07229 0 0 1 1098 1300)"/><path d="M25.0729 50.1457 39.7708 50.1457 39.7708 53.6041 25.0729 53.6041Z" fill="#0070C0" transform="matrix(1.07229 0 0 1 1098 1300)"/><path d="M25.0729 60.5207 39.7708 60.5207 39.7708 63.979 25.0729 63.979Z" fill="#0070C0" transform="matrix(1.07229 0 0 1 1098 1300)"/><path d="M45.7364 30.952 47.552 29.1364 49.7999 31.3843 55.5061 25.6781 57.3218 27.4937 49.7999 35.0156Z" fill="#0070C0" transform="matrix(1.07229 0 0 1 1098 1300)"/><path d="M45.7364 41.327 47.552 39.5114 49.7999 41.7593 55.5061 36.0531 57.3218 37.8687 49.7999 45.3905Z" fill="#0070C0" transform="matrix(1.07229 0 0 1 1098 1300)"/><path d="M45.7364 51.702 47.552 49.8864 49.7999 52.1343 55.5061 46.428 57.3218 48.2437 49.7999 55.7655Z" fill="#0070C0" transform="matrix(1.07229 0 0 1 1098 1300)"/><path d="M45.7364 62.077 47.552 60.2613 49.7999 62.5093 55.5061 56.803 57.3218 58.6186 49.7999 66.1405Z" fill="#0070C0" transform="matrix(1.07229 0 0 1 1098 1300)"/></g></g></g><g><g><g><path d="M54.8969 90.3587C47.6517 92.802 40.8621 96.4308 34.8052 101.097 30.6922 104.31 28.2521 109.209 28.1667 114.427L28.1667 145.358 29.7335 146.403C33.3916 148.842 39.7133 150.757 47.5313 152.16L47.5313 140.833 80.9792 140.833 80.9792 155C82.3136 155.019 83.6498 155.03 84.9877 155.031 85.9999 155.031 87.0104 155.019 88.0209 155.008L88.0209 140.833 121.469 140.833 121.469 152.287C129.584 150.85 136.003 148.852 139.425 146.291L140.833 145.234 140.833 114.353C140.74 109.185 138.327 104.333 134.262 101.14 128.209 96.47 121.424 92.836 114.182 90.3851L103.206 85.9841C102.543 85.7167 102.107 85.0745 102.104 84.3592L102.104 80.0497C108.779 74.7164 112.665 66.6373 112.667 58.0938L112.667 45.7709 114.427 45.7709C116.372 45.7709 117.948 44.1946 117.948 42.25 117.948 40.3055 116.372 38.7292 114.427 38.7292L112.667 38.7292C112.054 29.0076 106.461 20.2929 97.8792 15.6853L95.0626 26.8288C94.864 27.6336 94.1308 28.1908 93.3022 28.1667L92.8797 28.1667C91.928 27.9676 91.3178 27.0347 91.5169 26.0832 91.5169 26.0829 91.5171 26.0827 91.5171 26.0824 91.5171 26.0489 91.5329 26.0172 91.5417 25.9838L94.8865 12.7982C94.2998 10.4593 92.2033 8.81482 89.7919 8.80209L79.2294 8.80209C76.8141 8.81001 74.712 10.4555 74.1242 12.7982L77.469 25.9838C77.724 26.9203 77.1727 27.8866 76.2367 28.1438L76.131 28.1667 75.7085 28.1667C74.8799 28.1908 74.1467 27.6336 73.9481 26.8288L71.2195 15.6853C62.6373 20.2929 57.0449 29.0076 56.432 38.7292L54.5835 38.7292C52.639 38.7292 51.0627 40.3055 51.0627 42.25 51.0627 44.1946 52.639 45.7709 54.5835 45.7709L56.3439 45.7709 56.3439 58.0938C56.3464 66.6308 60.228 74.7042 66.8941 80.0374L66.8941 84.3592C66.8971 85.0706 66.469 85.7128 65.8115 85.9841ZM63.375 58.0938 63.375 45.7709 105.625 45.7709 105.625 58.0938C105.625 69.7608 96.1671 79.2188 84.5001 79.2188 72.8331 79.2188 63.375 69.7608 63.375 58.0938ZM80.9792 133.792 48.0911 133.792 53.6153 98.5429 68.4679 92.5029C68.5736 92.4589 68.6669 92.3991 68.7707 92.3515L80.988 121.469ZM84.5001 93.3022C79.7681 93.3488 75.0567 92.6714 70.5294 91.2935 72.6785 89.635 73.9374 87.074 73.9376 84.3592L73.9376 84.1832C80.7104 86.9506 88.2985 86.9506 95.0714 84.1832L95.0714 84.3592C95.0686 87.0865 96.3389 89.6588 98.506 91.3146 93.9648 92.6823 89.2425 93.3525 84.5001 93.3022ZM88.0209 133.792 88.0209 121.469 100.235 92.3603C100.339 92.4079 100.434 92.4695 100.541 92.5135L115.505 98.4989 120.941 133.792Z" transform="matrix(1.07101 0 0 1 209 864)"/></g></g></g><g><g><g><path d="M118.629 94.5345C116.297 93.4184 113.617 92.2459 110.848 91.1615 113.927 85.9859 123.745 66.8959 115.682 45.7709L117.948 45.7709C118.92 45.7709 119.708 44.9827 119.708 44.0105 119.708 43.0382 118.92 42.25 117.948 42.25L113.515 42.25 113.515 39.2873 113.515 39.1763C112.918 29.1543 107.149 20.1649 98.2877 15.4459L97.2842 14.9072C96.3001 11.3075 93.0326 8.80867 89.3007 8.80209L79.7329 8.80209C75.9781 8.80742 72.6952 11.3349 71.73 14.9636L70.8199 15.4512C61.9581 20.1702 56.1896 29.1596 55.5922 39.1816L55.5922 39.2925 55.5922 42.25 51.0521 42.25C50.0798 42.25 49.2917 43.0382 49.2917 44.0105 49.2917 44.9827 50.0798 45.7709 51.0521 45.7709L53.3407 45.7709C45.2832 66.8818 55.0747 85.9665 58.1572 91.1544 56.0235 91.9889 54.0572 92.8339 52.1858 93.6859L51.2704 94.0979C46.3566 96.2871 41.7561 99.1212 37.5902 102.525 34.0111 105.466 31.8625 109.798 31.6875 114.427L31.6875 144.412 32.4709 144.941C40.6903 150.415 62.9702 153.156 85.0652 153.156 107.246 153.156 129.252 150.394 136.593 144.882L137.297 144.354 137.297 114.39C137.115 109.773 134.968 105.454 131.396 102.523 127.497 99.3286 123.207 96.6441 118.629 94.5345ZM59.106 39.3982C59.6602 30.6021 64.72 22.7166 72.4852 18.5478L74.9498 28.6314C75.1225 29.3442 75.7621 29.8452 76.4954 29.8426L76.9303 29.8426C76.9605 29.8373 76.9905 29.8301 77.0201 29.8215 77.8686 29.5907 78.3703 28.7165 78.1414 27.8674L75.1135 15.9371C75.6457 13.8178 77.5478 12.3296 79.7329 12.3229L89.2884 12.3229C91.4738 12.3304 93.3757 13.8192 93.9077 15.9388L90.8816 27.8674C90.873 27.897 90.8657 27.9269 90.8605 27.9572 90.6765 28.8128 91.221 29.6553 92.0764 29.8393 92.0818 29.8403 92.0873 29.8416 92.0928 29.8426L92.5223 29.8426C93.2557 29.8452 93.8952 29.3442 94.0679 28.6314L96.617 18.5478C104.382 22.7166 109.442 30.6021 109.996 39.3982L109.996 42.25 59.106 42.25ZM89.7901 135.552 119.425 135.552 119.717 137.448 119.717 147.069C109.825 148.72 99.8185 149.587 89.7901 149.664ZM106.264 93.2001 113.371 96.147 118.885 132.031 89.7901 132.031 89.7901 121.821 102.465 91.6192ZM49.3005 137.45 49.598 135.552 79.2276 135.552 79.2276 149.636C69.1962 149.501 59.1905 148.587 49.3005 146.903ZM63.2958 92.9378 66.5491 91.6051 79.2241 121.823 79.2241 132.031 50.149 132.031 55.7929 96.0097 61.9544 93.487ZM89.3078 46.049C95.7509 49.6984 101.808 53.9911 107.385 58.8613 106.973 71.4939 96.3975 81.4 83.7651 80.9873 71.9923 80.6027 62.4343 71.3446 61.6745 59.5901 66.8413 58.6906 83.1058 55.2032 89.3078 46.049ZM69.6721 89.9574C71.2559 88.6226 72.169 86.6559 72.1666 84.5846L72.1666 81.4229C79.8732 85.5225 89.1129 85.5266 96.823 81.4334L96.823 84.5793C96.8193 86.6615 97.7409 88.6377 99.3386 89.9732L97.9461 93.2898C89.1453 95.65 79.8777 95.65 71.0769 93.2898ZM107.5 89.9063 102.527 87.8449C101.201 87.3042 100.336 86.0114 100.344 84.5793L100.344 79.173C106.987 74.2013 110.9 66.3912 110.906 58.0938 110.907 57.6095 110.707 57.1467 110.355 56.814 105.859 52.6652 100.966 48.9664 95.7491 45.7709L111.876 45.7709C120.675 66.8959 109.796 86.2094 107.5 89.901ZM57.1361 45.7709 85.0405 45.7709C77.6028 53.8195 59.8208 56.3334 59.6218 56.351 58.748 56.4673 58.0948 57.2122 58.0938 58.0938 58.1007 66.3834 62.0084 74.1863 68.6422 79.1572L68.6422 84.5793C68.6456 86.008 67.7823 87.2961 66.4593 87.8361L61.4914 89.8729C59.1624 86.1179 48.3569 66.8431 57.1361 45.7709ZM35.2084 114.464C35.3473 110.849 37.0471 107.471 39.8682 105.206 43.5647 102.186 47.6327 99.6504 51.9728 97.6627L45.8114 137.04 45.7938 146.168C42.1092 145.449 38.5452 144.211 35.2084 142.492ZM82.7485 149.688 82.7485 121.117 72.7898 97.3828C80.5203 98.986 88.4974 98.986 96.228 97.3828L86.2693 121.117 86.2693 149.699C85.0898 149.702 83.9161 149.699 82.7485 149.688ZM133.776 142.548C130.492 144.377 126.933 145.662 123.238 146.354L123.238 137.313 117.17 97.7402C121.451 99.7141 125.465 102.223 129.116 105.206 131.929 107.462 133.628 110.825 133.776 114.427Z" fill="#0070C0" transform="matrix(1.07101 0 0 1 209 1029)"/></g></g></g><g><g><g><path d="M284.437 222 48.5625 222 48.5625 69.3749 284.437 69.3749 284.437 222ZM291.375 48.5625 41.625 48.5625C33.9937 48.5625 27.75 54.8062 27.75 62.4375L27.75 228.937C27.75 236.569 33.9937 242.812 41.625 242.812L138.75 242.812 138.75 263.625 104.062 263.625 104.062 284.437 228.937 284.437 228.937 263.625 194.25 263.625 194.25 242.812 291.375 242.812C299.006 242.812 305.25 236.569 305.25 228.937L305.25 62.4375C305.25 54.8062 299.006 48.5625 291.375 48.5625Z" transform="matrix(1.06607 0 0 1 372 863)"/></g></g></g><g><g><g><path d="M68.4375 38.0209 103.417 38.0209 103.417 41.0625 68.4375 41.0625Z" fill="#0070C0" transform="matrix(1.06849 0 0 1 475 936)"/><path d="M68.4375 60.8334 103.417 60.8334 103.417 63.875 68.4375 63.875Z" fill="#0070C0" transform="matrix(1.06849 0 0 1 475 936)"/><path d="M68.4375 83.6459 103.417 83.6459 103.417 86.6876 68.4375 86.6876Z" fill="#0070C0" transform="matrix(1.06849 0 0 1 475 936)"/><path d="M68.4375 106.458 103.417 106.458 103.417 109.5 68.4375 109.5Z" fill="#0070C0" transform="matrix(1.06849 0 0 1 475 936)"/><path d="M27.375 133.833 118.625 133.833 118.625 12.1667 27.375 12.1667ZM30.4167 15.2083 115.583 15.2083 115.583 130.792 30.4167 130.792Z" fill="#0070C0" transform="matrix(1.06849 0 0 1 475 936)"/><path d="M42.5834 46.3854 56.2709 46.3854 56.2709 32.6979 42.5834 32.6979ZM45.625 35.7396 53.2292 35.7396 53.2292 43.3438 45.625 43.3438Z" fill="#0070C0" transform="matrix(1.06849 0 0 1 475 936)"/><path d="M42.5834 69.198 56.2709 69.198 56.2709 55.5105 42.5834 55.5105ZM45.625 58.5521 53.2292 58.5521 53.2292 66.1563 45.625 66.1563Z" fill="#0070C0" transform="matrix(1.06849 0 0 1 475 936)"/><path d="M42.5834 92.0105 56.2709 92.0105 56.2709 78.323 42.5834 78.323ZM45.625 81.3646 53.2292 81.3646 53.2292 88.9688 45.625 88.9688Z" fill="#0070C0" transform="matrix(1.06849 0 0 1 475 936)"/><path d="M42.5834 114.823 56.2709 114.823 56.2709 101.135 42.5834 101.135ZM45.625 104.177 53.2292 104.177 53.2292 111.781 45.625 111.781Z" fill="#0070C0" transform="matrix(1.06849 0 0 1 475 936)"/></g></g></g><path d="M1181.68 754.5 1053.32 754.5 1053.32 677.5 1181.68 677.5 1181.68 754.5ZM1126.94 761.5 1108.06 761.5C1106.93 761.5 1106.18 760.8 1106.18 759.75 1106.18 758.7 1106.93 758 1108.06 758L1126.94 758C1128.07 758 1128.83 758.7 1128.83 759.75 1128.83 760.8 1128.07 761.5 1126.94 761.5ZM1117.5 670.5C1118.63 670.5 1119.39 671.2 1119.39 672.25 1119.39 673.3 1118.63 674 1117.5 674 1116.37 674 1115.61 673.3 1115.61 672.25 1115.61 671.2 1116.37 670.5 1117.5 670.5ZM1185.45 667 1049.55 667C1045.4 667 1042 670.15 1042 674L1042 758C1042 761.85 1045.4 765 1049.55 765L1185.45 765C1189.6 765 1193 761.85 1193 758L1193 674C1193 670.15 1189.6 667 1185.45 667Z" fill-rule="evenodd"/><path d="M1331.75 625.5C1331.75 627.439 1330.06 629.025 1328 629.025L1268 629.025C1265.94 629.025 1264.25 627.439 1264.25 625.5L1264.25 590.25C1264.25 586.373 1267.62 583.2 1271.75 583.2L1286.75 583.2C1286.75 581.262 1288.44 579.675 1290.5 579.675L1305.5 579.675C1307.56 579.675 1309.25 581.262 1309.25 583.2L1324.25 583.2C1328.38 583.2 1331.75 586.373 1331.75 590.25L1331.75 625.5ZM1326.12 667.8C1322.94 667.8 1320.5 665.509 1320.5 662.513 1320.5 659.516 1322.94 657.225 1326.12 657.225 1329.31 657.225 1331.75 659.516 1331.75 662.513 1331.75 665.509 1329.31 667.8 1326.12 667.8ZM1269.88 667.8C1266.69 667.8 1264.25 665.509 1264.25 662.513 1264.25 659.516 1266.69 657.225 1269.88 657.225 1273.06 657.225 1275.5 659.516 1275.5 662.513 1275.5 665.509 1273.06 667.8 1269.88 667.8ZM1328 572.625 1301.75 572.625 1301.75 562.05 1320.5 562.05 1320.5 555 1275.5 555 1275.5 562.05 1294.25 562.05 1294.25 572.625 1268 572.625C1259.75 572.625 1253 578.97 1253 586.725L1253 667.8C1253 673.616 1258.06 678.375 1264.25 678.375L1265.94 678.375 1257.5 696 1265.75 696 1274.19 678.375 1321.81 678.375 1330.25 696 1338.5 696 1330.06 678.375 1331.75 678.375C1337.94 678.375 1343 673.616 1343 667.8L1343 586.725C1343 578.97 1336.25 572.625 1328 572.625Z" fill-rule="evenodd"/><path d="M1331.75 789.5C1331.75 791.439 1330.06 793.025 1328 793.025L1268 793.025C1265.94 793.025 1264.25 791.439 1264.25 789.5L1264.25 754.25C1264.25 750.373 1267.62 747.2 1271.75 747.2L1286.75 747.2C1286.75 745.261 1288.44 743.675 1290.5 743.675L1305.5 743.675C1307.56 743.675 1309.25 745.261 1309.25 747.2L1324.25 747.2C1328.38 747.2 1331.75 750.373 1331.75 754.25L1331.75 789.5ZM1326.12 831.8C1322.94 831.8 1320.5 829.509 1320.5 826.513 1320.5 823.516 1322.94 821.225 1326.12 821.225 1329.31 821.225 1331.75 823.516 1331.75 826.513 1331.75 829.509 1329.31 831.8 1326.12 831.8ZM1269.88 831.8C1266.69 831.8 1264.25 829.509 1264.25 826.513 1264.25 823.516 1266.69 821.225 1269.88 821.225 1273.06 821.225 1275.5 823.516 1275.5 826.513 1275.5 829.509 1273.06 831.8 1269.88 831.8ZM1328 736.625 1301.75 736.625 1301.75 726.05 1320.5 726.05 1320.5 719 1275.5 719 1275.5 726.05 1294.25 726.05 1294.25 736.625 1268 736.625C1259.75 736.625 1253 742.97 1253 750.725L1253 831.8C1253 837.616 1258.06 842.375 1264.25 842.375L1265.94 842.375 1257.5 860 1265.75 860 1274.19 842.375 1321.81 842.375 1330.25 860 1338.5 860 1330.06 842.375 1331.75 842.375C1337.94 842.375 1343 837.616 1343 831.8L1343 750.725C1343 742.97 1336.25 736.625 1328 736.625Z" fill-rule="evenodd"/><path d="M1099.52 691.5 1109.63 691.5 1109.63 696.75 1135.37 696.75 1135.37 691.5 1145.48 691.5 1145.48 745.75 1099.52 745.75 1099.52 691.5ZM1122.59 684.5C1124.06 684.5 1125.26 685.725 1125.26 687.125 1125.26 688.613 1124.06 689.75 1122.5 689.75 1120.94 689.75 1119.74 688.613 1119.74 687.125 1119.74 685.637 1120.94 684.5 1122.59 684.5ZM1094 689.75 1094 747.5C1094 749.425 1095.66 751 1097.68 751L1147.32 751C1149.34 751 1151 749.425 1151 747.5L1151 689.75C1151 687.825 1149.34 686.25 1147.32 686.25L1131.69 686.25 1131.69 684.5C1131.69 682.575 1130.04 681 1128.02 681L1116.98 681C1114.96 681 1113.31 682.575 1113.31 684.5L1113.31 686.25 1097.68 686.25C1095.66 686.25 1094 687.825 1094 689.75Z" fill="#0097B7" fill-rule="evenodd"/><path d="M1105 704 1120 704 1120 707 1105 707Z" fill="#C00000" fill-rule="evenodd"/><path d="M1105 714 1120 714 1120 718 1105 718Z" fill="#C00000" fill-rule="evenodd"/><path d="M1105 725 1120 725 1120 728 1105 728Z" fill="#C00000" fill-rule="evenodd"/><path d="M1105 735 1120 735 1120 738 1105 738Z" fill="#C00000" fill-rule="evenodd"/><path d="M1127 705.083 1128.88 703.333 1131.21 705.5 1137.12 700 1139 701.75 1131.21 709Z" fill="#C00000" fill-rule="evenodd"/><path d="M1127 715.648 1128.88 713.704 1131.21 716.111 1137.12 710 1139 711.944 1131.21 720Z" fill="#C00000" fill-rule="evenodd"/><path d="M1127 726.083 1128.88 724.333 1131.21 726.5 1137.12 721 1139 722.75 1131.21 730Z" fill="#C00000" fill-rule="evenodd"/><path d="M1127 736.648 1128.88 734.704 1131.21 737.111 1137.12 731 1139 732.945 1131.21 741Z" fill="#C00000" fill-rule="evenodd"/><path d="M1008.64 738.119C1003.9 734.613 998.659 731.755 993.066 729.631L993.066 729.631C991.277 728.914 989.46 728.232 987.613 727.584L975.828 723.163C974.41 722.622 973.483 721.33 973.484 719.895L973.484 714.684C980.604 709.69 984.799 701.846 984.807 693.512L984.807 681.134 992.355 681.134C993.397 681.134 994.242 680.342 994.242 679.366 994.242 678.389 993.397 677.597 992.355 677.597L987.603 677.597 987.603 674.621 987.603 674.51C986.963 664.443 980.779 655.413 971.28 650.673L970.204 650.132C969.149 646.516 965.647 644.006 961.646 644L951.388 644C947.363 644.006 943.845 646.544 942.811 650.189L941.835 650.679C932.335 655.418 926.152 664.448 925.512 674.515L925.512 674.627 925.512 677.597 920.645 677.597C919.603 677.597 918.758 678.389 918.758 679.366 918.758 680.342 919.603 681.134 920.645 681.134L928.193 681.134 928.193 693.512C928.202 701.839 932.391 709.678 939.503 714.671L939.503 719.895C939.507 721.329 938.583 722.622 937.167 723.166L927.005 727.039C918.852 729.497 911.206 733.236 904.391 738.096 900.437 740.987 898.088 745.398 898 750.097L898 780.217 898.84 780.747C907.671 786.254 932.49 789 957.108 789 981.829 789 1006.35 786.224 1014.24 780.678L1015 780.158 1015 750.06C1014.9 745.385 1012.57 741 1008.64 738.119ZM929.279 674.733C929.873 665.897 935.297 657.977 943.621 653.789L946.263 663.918C946.448 664.634 947.133 665.137 947.919 665.135L948.386 665.135C948.418 665.129 948.45 665.122 948.482 665.113 949.391 664.881 949.929 664.003 949.684 663.15L946.438 651.167C947.008 649.039 949.046 647.544 951.388 647.536L961.633 647.536C963.975 647.544 966.014 649.039 966.585 651.168L963.341 663.15C963.331 663.18 963.324 663.21 963.318 663.241 963.121 664.1 963.705 664.946 964.622 665.131 964.627 665.132 964.633 665.133 964.639 665.135L965.099 665.135C965.886 665.137 966.571 664.634 966.756 663.918L969.489 653.789C977.813 657.977 983.237 665.897 983.831 674.733L983.831 677.597 929.279 677.597ZM996.139 773.227 996.139 782.832C984.908 784.556 973.551 785.453 962.171 785.515L962.171 773.085 996.116 773.085ZM986.263 730.894 989.381 732.064 995.535 769.549 962.171 769.549 962.171 759.319 977.413 727.573 979.334 728.293ZM931.968 693.512 931.968 681.134 981.032 681.134 981.032 693.512C981.032 706.208 970.049 716.5 956.5 716.5 942.951 716.5 931.968 706.208 931.968 693.512ZM943.29 719.895 943.29 716.947C951.553 721.061 961.456 721.061 969.719 716.947L969.719 719.895C969.715 722.585 971.346 725.042 973.924 726.226L972.938 728.278C967.637 729.917 962.082 730.717 956.5 730.646 950.92 730.715 945.367 729.913 940.069 728.273L939.078 726.213C941.655 725.034 943.289 722.582 943.29 719.895ZM916.88 773.223 916.903 773.085 950.848 773.085 950.848 785.479C939.465 785.357 928.108 784.411 916.88 782.65ZM933.675 728.309 935.6 727.575 950.85 759.312 950.85 769.549 917.494 769.549 923.757 732.094 928.356 730.342ZM901.774 750.135C901.85 746.497 903.676 743.087 906.743 740.856 910.419 738.114 914.446 735.813 918.732 734.006L919.675 733.652 913.129 772.811 913.11 781.927C909.171 781.219 905.359 779.994 901.787 778.286ZM954.613 785.532 954.613 758.559 942.124 732.565C951.567 734.717 961.423 734.717 970.867 732.565L958.387 758.559 958.387 785.541C957.138 785.546 955.881 785.541 954.622 785.532ZM1011.23 778.342C1007.7 780.16 1003.88 781.434 999.922 782.114L999.922 773.085 993.468 733.652C998.058 735.529 1002.37 737.959 1006.29 740.879 1009.33 743.1 1011.14 746.485 1011.23 750.097Z" fill="#0070C0" fill-rule="evenodd"/><g><g><g><path d="M90.0001 42.1875C90.0001 54.6139 79.9265 64.6875 67.5001 64.6875 55.0736 64.6875 45 54.6139 45 42.1875 45 29.7611 55.0736 19.6875 67.5001 19.6875 79.9265 19.6875 90.0001 29.7611 90.0001 42.1875Z" fill="#0070C0" transform="matrix(1.06667 0 0 1 2177 1040)"/><path d="M112.5 115.313 112.5 92.8126C112.5 89.4376 110.813 86.0626 108 83.8126 101.813 78.7501 93.9376 75.3751 86.0626 73.1251 80.4376 71.4376 74.2501 70.3126 67.5001 70.3126 61.3125 70.3126 55.125 71.4376 48.9375 73.1251 41.0625 75.3751 33.1875 79.3126 27 83.8126 24.1875 86.0626 22.5 89.4376 22.5 92.8126L22.5 115.313 112.5 115.313Z" fill="#0070C0" transform="matrix(1.06667 0 0 1 2177 1040)"/></g></g></g><g><g><g><path d="M84.6668 39.6876C84.6668 51.3776 75.1901 60.8543 63.5001 60.8543 51.8101 60.8543 42.3334 51.3776 42.3334 39.6876 42.3334 27.9975 51.8101 18.5209 63.5001 18.5209 75.1901 18.5209 84.6668 27.9975 84.6668 39.6876Z" transform="matrix(1.07087 0 0 1 2079 1043)"/><path d="M105.834 108.479 105.834 87.3126C105.834 84.1376 104.246 80.9626 101.6 78.846 95.7793 74.0835 88.371 70.9084 80.9626 68.7918 75.671 67.2043 69.8501 66.1459 63.5001 66.1459 57.6793 66.1459 51.8584 67.2043 46.0376 68.7918 38.6292 70.9084 31.2209 74.6126 25.4 78.846 22.7542 80.9626 21.1667 84.1376 21.1667 87.3126L21.1667 108.479 105.834 108.479Z" transform="matrix(1.07087 0 0 1 2079 1043)"/></g></g></g><g><g><g><path d="M283.583 221.333 48.4167 221.333 48.4167 69.1667 283.583 69.1667 283.583 221.333ZM290.5 48.4167 41.5 48.4167C33.8917 48.4167 27.6667 54.6417 27.6667 62.25L27.6667 228.25C27.6667 235.858 33.8917 242.083 41.5 242.083L138.333 242.083 138.333 262.833 103.75 262.833 103.75 283.583 228.25 283.583 228.25 262.833 193.667 262.833 193.667 242.083 290.5 242.083C298.108 242.083 304.333 235.858 304.333 228.25L304.333 62.25C304.333 54.6417 298.108 48.4167 290.5 48.4167Z" transform="matrix(1.07229 0 0 1 1617 911)"/></g></g></g><g><g><g><path d="M36.6562 22.3125 116.344 22.3125 116.344 130.687 36.6562 130.687 36.6562 22.3125ZM27.0937 140.25 125.906 140.25 125.906 12.75 27.0937 12.75 27.0937 140.25Z" fill="#0070C0" transform="matrix(1.06536 0 0 1 1649 979)"/><path d="M79.6875 36.6562 106.781 36.6562 106.781 43.0312 79.6875 43.0312Z" fill="#0070C0" transform="matrix(1.06536 0 0 1 1649 979)"/><path d="M79.6875 62.1562 106.781 62.1562 106.781 68.5312 79.6875 68.5312Z" fill="#0070C0" transform="matrix(1.06536 0 0 1 1649 979)"/><path d="M79.6875 113.156 106.781 113.156 106.781 119.531 79.6875 119.531Z" fill="#0070C0" transform="matrix(1.06536 0 0 1 1649 979)"/><path d="M79.6875 87.6562 106.781 87.6562 106.781 94.0312 79.6875 94.0312Z" fill="#0070C0" transform="matrix(1.06536 0 0 1 1649 979)"/><path d="M69.8062 33.15 65.3437 28.6875 54.825 39.2062 50.6812 35.0625 46.2187 39.525 54.825 48.1312Z" fill="#0070C0" transform="matrix(1.06536 0 0 1 1649 979)"/><path d="M69.8062 58.65 65.3437 54.1875 54.825 64.7062 50.6812 60.5625 46.2187 65.025 54.825 73.6312Z" fill="#0070C0" transform="matrix(1.06536 0 0 1 1649 979)"/><path d="M69.8062 84.15 65.3437 79.6875 54.825 90.2062 50.6812 86.0625 46.2187 90.525 54.825 99.1312Z" fill="#0070C0" transform="matrix(1.06536 0 0 1 1649 979)"/><path d="M69.8062 109.331 65.3437 104.869 54.825 115.387 50.6812 111.244 46.2187 115.706 54.825 124.312Z" fill="#0070C0" transform="matrix(1.06536 0 0 1 1649 979)"/></g></g></g><g><g><g><path d="M26.6666 18.6666 18.6666 18.6666 18.6666 109.333 109.333 109.333 109.333 101.333 26.6666 101.333Z" fill="#0070C0" transform="matrix(1.0625 0 0 1 1781 992)"/><path d="M34.6666 46.6666 49.3333 46.6666 49.3333 93.3332 34.6666 93.3332Z" fill="#0070C0" transform="matrix(1.0625 0 0 1 1781 992)"/><path d="M54.6666 18.6666 69.3333 18.6666 69.3333 93.3332 54.6666 93.3332Z" fill="#0070C0" transform="matrix(1.0625 0 0 1 1781 992)"/><path d="M74.6666 46.6666 89.3332 46.6666 89.3332 93.3332 74.6666 93.3332Z" fill="#0070C0" transform="matrix(1.0625 0 0 1 1781 992)"/><path d="M94.6666 69.3333 109.333 69.3333 109.333 93.3332 94.6666 93.3332Z" fill="#0070C0" transform="matrix(1.0625 0 0 1 1781 992)"/></g></g></g><g><g><g><path d="M84.6666 39.6875C84.6666 51.3775 75.1899 60.8541 63.4999 60.8541 51.8099 60.8541 42.3333 51.3775 42.3333 39.6875 42.3333 27.9974 51.8099 18.5208 63.4999 18.5208 75.1899 18.5208 84.6666 27.9974 84.6666 39.6875Z" transform="matrix(1.07087 0 0 1 2069 937)"/><path d="M105.833 108.479 105.833 87.3124C105.833 84.1374 104.246 80.9624 101.6 78.8457 95.779 74.0832 88.3707 70.9082 80.9624 68.7916 75.6707 67.2041 69.8499 66.1457 63.4999 66.1457 57.6791 66.1457 51.8583 67.2041 46.0374 68.7916 38.6291 70.9082 31.2208 74.6124 25.4 78.8457 22.7541 80.9624 21.1666 84.1374 21.1666 87.3124L21.1666 108.479 105.833 108.479Z" transform="matrix(1.07087 0 0 1 2069 937)"/></g></g></g><g><g><g><path d="M85.3332 40C85.3332 51.782 75.782 61.3333 63.9999 61.3333 52.2179 61.3333 42.6666 51.782 42.6666 40 42.6666 28.2179 52.2179 18.6666 63.9999 18.6666 75.782 18.6666 85.3332 28.2179 85.3332 40Z" transform="matrix(1.0625 0 0 1 1966 1047)"/><path d="M106.667 109.333 106.667 87.9999C106.667 84.7999 105.067 81.5999 102.4 79.4666 96.5332 74.6666 89.0666 71.4666 81.5999 69.3333 76.2666 67.7333 70.3999 66.6666 63.9999 66.6666 58.1333 66.6666 52.2666 67.7333 46.4 69.3333 38.9333 71.4666 31.4666 75.1999 25.6 79.4666 22.9333 81.5999 21.3333 84.7999 21.3333 87.9999L21.3333 109.333 106.667 109.333Z" transform="matrix(1.0625 0 0 1 1966 1047)"/></g></g></g><g><g><g><path d="M84.6668 39.6876C84.6668 51.3776 75.1901 60.8543 63.5001 60.8543 51.8101 60.8543 42.3334 51.3776 42.3334 39.6876 42.3334 27.9975 51.8101 18.5209 63.5001 18.5209 75.1901 18.5209 84.6668 27.9975 84.6668 39.6876Z" transform="matrix(1.07087 0 0 1 1965 942)"/><path d="M105.834 108.479 105.834 87.3126C105.834 84.1376 104.246 80.9626 101.6 78.846 95.7793 74.0835 88.371 70.9084 80.9626 68.7918 75.671 67.2043 69.8501 66.1459 63.5001 66.1459 57.6793 66.1459 51.8584 67.2043 46.0376 68.7918 38.6292 70.9084 31.2209 74.6126 25.4 78.846 22.7542 80.9626 21.1667 84.1376 21.1667 87.3126L21.1667 108.479 105.834 108.479Z" transform="matrix(1.07087 0 0 1 1965 942)"/></g></g></g><g><g><g><path d="M90.0001 42.1875C90.0001 54.6139 79.9265 64.6875 67.5001 64.6875 55.0736 64.6875 45 54.6139 45 42.1875 45 29.7611 55.0736 19.6875 67.5001 19.6875 79.9265 19.6875 90.0001 29.7611 90.0001 42.1875Z" fill="#0070C0" transform="matrix(1.06667 0 0 1 2180 934)"/><path d="M112.5 115.313 112.5 92.8126C112.5 89.4376 110.813 86.0626 108 83.8126 101.813 78.7501 93.9376 75.3751 86.0626 73.1251 80.4376 71.4376 74.2501 70.3126 67.5001 70.3126 61.3125 70.3126 55.125 71.4376 48.9375 73.1251 41.0625 75.3751 33.1875 79.3126 27 83.8126 24.1875 86.0626 22.5 89.4376 22.5 92.8126L22.5 115.313 112.5 115.313Z" fill="#0070C0" transform="matrix(1.06667 0 0 1 2180 934)"/></g></g></g><g><g><g><path d="M81.3749 122.062 197.625 122.062 197.625 127.875 81.3749 127.875Z" transform="matrix(1.07169 0 0 1 1988 1224)"/><path d="M81.3749 98.8124 136.594 98.8124 136.594 104.625 81.3749 104.625Z" transform="matrix(1.07169 0 0 1 1988 1224)"/><path d="M81.3749 145.312 197.625 145.312 197.625 151.125 81.3749 151.125Z" transform="matrix(1.07169 0 0 1 1988 1224)"/><path d="M81.3749 168.562 197.625 168.562 197.625 174.375 81.3749 174.375Z" transform="matrix(1.07169 0 0 1 1988 1224)"/><path d="M81.3749 191.812 197.625 191.812 197.625 197.625 81.3749 197.625Z" transform="matrix(1.07169 0 0 1 1988 1224)"/><path d="M81.3749 215.062 197.625 215.062 197.625 220.875 81.3749 220.875Z" transform="matrix(1.07169 0 0 1 1988 1224)"/><path d="M52.3125 23.25 52.3125 255.75 226.687 255.75 226.687 85.9842 163.953 23.25ZM165.706 33.2213 216.716 84.2318C216.727 84.2431 216.727 84.2617 216.716 84.2728 216.71 84.278 216.703 84.2812 216.696 84.2812L165.656 84.2812 165.656 33.2417C165.656 33.2257 165.669 33.2129 165.685 33.2129 165.693 33.2132 165.7 33.2161 165.706 33.2213ZM58.125 249.937 58.125 29.0625 159.844 29.0625 159.844 90.0937 220.875 90.0937 220.875 249.937Z" transform="matrix(1.07169 0 0 1 1988 1224)"/></g></g></g><g><g><g><path d="M84.5089 44.0105C62.1472 44.0105 44.0193 62.1384 44.0193 84.5001 44.0193 106.862 62.1472 124.99 84.5089 124.99 106.871 124.99 124.998 106.862 124.998 84.5001 124.973 62.1487 106.86 44.0356 84.5089 44.0105ZM78.7523 100.985 61.1076 83.3382 67.1036 77.3422 78.7523 88.9909 102.609 65.1355 108.605 71.1314Z" fill="#0070C0" transform="matrix(1.06509 0 0 1 2104 1372)"/><path d="M144.574 86.727C143.516 85.431 143.516 83.5692 144.574 82.2731L148.912 76.9584C150.142 75.4526 149.919 73.2346 148.413 72.0043 148.31 71.9203 148.203 71.8423 148.092 71.7705L142.323 68.056C140.917 67.1508 140.341 65.3812 140.946 63.8222L143.43 57.4248C144.134 55.6123 143.236 53.5722 141.423 52.868 141.3 52.8203 141.174 52.7793 141.046 52.7456L134.411 50.9958C132.794 50.5694 131.7 49.0639 131.794 47.394L132.179 40.5424C132.288 38.601 130.803 36.9387 128.861 36.8297 128.73 36.8223 128.598 36.8223 128.467 36.8297L121.615 37.2152C119.945 37.3089 118.44 36.2148 118.013 34.5975L116.263 27.9625C115.767 26.0824 113.841 24.9604 111.961 25.4565 111.833 25.4901 111.707 25.531 111.584 25.5789L105.187 28.0628C103.628 28.6677 101.858 28.0922 100.953 26.6862L97.2384 20.9173C96.1857 19.2824 94.007 18.8104 92.3721 19.8631 92.2605 19.935 92.1531 20.013 92.0505 20.0969L86.7358 24.4346C85.4398 25.493 83.578 25.493 82.2819 24.4346L76.9672 20.0969C75.4614 18.8666 73.2434 19.09 72.0131 20.5957 71.9291 20.6985 71.8511 20.8059 71.7793 20.9173L68.0648 26.6862C67.1596 28.0922 65.39 28.6677 63.831 28.0628L57.4336 25.5789C55.6211 24.8747 53.581 25.7734 52.8768 27.5859 52.8291 27.709 52.7881 27.8347 52.7544 27.9625L51.0046 34.5975C50.5782 36.2148 49.0727 37.3089 47.4028 37.2152L40.5512 36.8297C38.6098 36.7207 36.9475 38.2062 36.8385 40.1476 36.8311 40.2791 36.8311 40.4109 36.8385 40.5424L37.224 47.394C37.3177 49.0639 36.2236 50.5694 34.6063 50.9958L27.9713 52.7456C26.0912 53.2417 24.9692 55.1682 25.4653 57.0483 25.499 57.1759 25.5398 57.3018 25.5877 57.4248L28.0716 63.8222C28.6765 65.3814 28.101 67.1508 26.695 68.056L20.9261 71.7705C19.2908 72.8225 18.818 75.0012 19.87 76.6365 19.9418 76.7481 20.02 76.8556 20.104 76.9584L24.4434 82.2731C25.5018 83.5692 25.5018 85.431 24.4434 86.727L20.104 92.0417C18.874 93.5477 19.0979 95.7659 20.6041 96.9957 20.7069 97.0797 20.8145 97.1578 20.9261 97.2296L26.695 100.944C28.101 101.849 28.6765 103.619 28.0716 105.178L25.5877 111.575C24.8835 113.388 25.7822 115.428 27.5947 116.132 27.7178 116.18 27.8435 116.221 27.9713 116.254L34.6063 118.004C36.2236 118.431 37.3177 119.936 37.224 121.606L36.8385 128.458C36.7295 130.399 38.215 132.061 40.1564 132.17 40.2879 132.178 40.4197 132.178 40.5512 132.17L47.4028 131.785C49.0727 131.691 50.5782 132.785 51.0046 134.403L52.7544 141.038C53.2505 142.918 55.177 144.04 57.0571 143.544 57.1847 143.51 57.3106 143.469 57.4336 143.421L63.831 140.937C65.39 140.332 67.1596 140.908 68.0648 142.314L71.7793 148.083C72.832 149.718 75.0107 150.19 76.6456 149.137 76.7572 149.065 76.8646 148.987 76.9672 148.903L82.2819 144.566C83.578 143.507 85.4398 143.507 86.7358 144.566L92.0505 148.903C93.5564 150.134 95.7743 149.91 97.0047 148.404 97.0886 148.302 97.1666 148.194 97.2384 148.083L100.953 142.314C101.858 140.908 103.628 140.332 105.187 140.937L111.584 143.421C113.397 144.125 115.437 143.227 116.141 141.414 116.189 141.291 116.23 141.165 116.263 141.038L118.013 134.403C118.44 132.785 119.945 131.691 121.615 131.785L128.467 132.17C130.408 132.279 132.07 130.794 132.179 128.853 132.187 128.721 132.187 128.589 132.179 128.458L131.794 121.606C131.7 119.936 132.794 118.431 134.411 118.004L141.046 116.254C142.927 115.758 144.048 113.832 143.552 111.952 143.519 111.824 143.478 111.698 143.43 111.575L140.946 105.178C140.341 103.619 140.917 101.849 142.323 100.944L148.092 97.2296C149.727 96.1769 150.199 93.9982 149.146 92.3633 149.074 92.2517 148.996 92.1443 148.912 92.0417ZM84.5089 130.271C59.2303 130.271 38.738 109.779 38.738 84.5001 38.738 59.2215 59.2303 38.7292 84.5089 38.7292 109.787 38.7292 130.28 59.2215 130.28 84.5001 130.252 109.767 109.776 130.243 84.5089 130.271Z" fill="#0070C0" transform="matrix(1.06509 0 0 1 2104 1372)"/></g></g></g><path d="M0.0752517-5.1557 269.151-1.22832 269.001 9.08309-0.0752517 5.1557ZM264.146-11.615 294.854 4.30364 263.695 19.3192Z" fill="#0070C0" transform="matrix(1 0 0 -1 727 1029.3)"/><path d="M1132.16 826.781 1132.16 886.482 1121.84 886.482 1121.84 826.781ZM1111.53 831.938 1127 801 1142.47 831.937ZM1142.47 881.326 1127 912.263 1111.53 881.326Z" fill="#0070C0"/><path d="M1139.16 1165.78 1139.16 1225.48 1128.84 1225.48 1128.84 1165.78ZM1118.53 1170.94 1134 1140 1149.47 1170.94ZM1149.47 1220.33 1134 1251.26 1118.53 1220.33Z" fill="#0070C0"/><path d="M0-5.15625 249.393-5.15625 249.393 307.14 244.236 301.984 462.691 301.984 462.691 312.297 239.08 312.297 239.08 0 244.236 5.15625 0 5.15625ZM457.535 291.672 488.473 307.14 457.535 322.609Z" fill="#0070C0" transform="matrix(1 0 0 -1 1242 979.14)"/><path d="M1236.06 1019.84 1571.68 1023.65 1571.56 1033.97 1235.94 1030.16ZM1566.64 1013.28 1597.4 1029.1 1566.29 1044.22Z" fill="#0070C0"/><path d="M0-5.15625 125.375-5.15625 125.375 167.263 115.062 167.263 115.062 0 120.219 5.15625 0 5.15625ZM135.687 162.107 120.219 193.045 104.75 162.107Z" fill="#0070C0" transform="matrix(1.83697e-16 1 1 -1.83697e-16 1795 1243)"/><text font-family="Amasis MT Pro Medium,Amasis MT Pro Medium_MSFontService,sans-serif" font-weight="500" font-size="46" transform="matrix(1 0 0 1 273.512 1302)">Inspectors prepare a </text><text font-family="Amasis MT Pro Medium,Amasis MT Pro Medium_MSFontService,sans-serif" font-weight="500" font-size="46" transform="matrix(1 0 0 1 273.512 1357)">checklist for the </text><text font-family="Amasis MT Pro Medium,Amasis MT Pro Medium_MSFontService,sans-serif" font-weight="500" font-size="46" transform="matrix(1 0 0 1 273.512 1412)">inspection on the web </text><text font-family="Amasis MT Pro Medium,Amasis MT Pro Medium_MSFontService,sans-serif" font-weight="500" font-size="46" transform="matrix(1 0 0 1 273.512 1467)">application</text><text font-family="Amasis MT Pro Medium,Amasis MT Pro Medium_MSFontService,sans-serif" font-weight="500" font-size="46" transform="matrix(1 0 0 1 547.461 523)">The checklist is uploaded </text><text font-family="Amasis MT Pro Medium,Amasis MT Pro Medium_MSFontService,sans-serif" font-weight="500" font-size="46" transform="matrix(1 0 0 1 547.461 578)">online and available on a </text><text font-family="Amasis MT Pro Medium,Amasis MT Pro Medium_MSFontService,sans-serif" font-weight="500" font-size="46" transform="matrix(1 0 0 1 547.461 633)">mobile application</text><text font-family="Amasis MT Pro Medium,Amasis MT Pro Medium_MSFontService,sans-serif" font-weight="500" font-size="46" transform="matrix(1 0 0 1 1407.37 1509)">The inspectors complete </text><text font-family="Amasis MT Pro Medium,Amasis MT Pro Medium_MSFontService,sans-serif" font-weight="500" font-size="46" transform="matrix(1 0 0 1 1407.37 1564)">their inspection with </text><text font-family="Amasis MT Pro Medium,Amasis MT Pro Medium_MSFontService,sans-serif" font-weight="500" font-size="46" transform="matrix(1 0 0 1 1407.37 1619)">remarks, multimedia, action </text><text font-family="Amasis MT Pro Medium,Amasis MT Pro Medium_MSFontService,sans-serif" font-weight="500" font-size="46" transform="matrix(1 0 0 1 1407.37 1674)">lists, etc</text><text font-family="Amasis MT Pro Medium,Amasis MT Pro Medium_MSFontService,sans-serif" font-weight="500" font-size="46" transform="matrix(1 0 0 1 2115.75 805)">Results from the inspection are </text><text font-family="Amasis MT Pro Medium,Amasis MT Pro Medium_MSFontService,sans-serif" font-weight="500" font-size="46" transform="matrix(1 0 0 1 2115.75 860)">available on web application to </text><text font-family="Amasis MT Pro Medium,Amasis MT Pro Medium_MSFontService,sans-serif" font-weight="500" font-size="46" transform="matrix(1 0 0 1 2115.75 915)">stakeholders of the asset</text><text font-family="Amasis MT Pro Medium,Amasis MT Pro Medium_MSFontService,sans-serif" font-weight="500" font-size="46" transform="matrix(1 0 0 1 2102.49 1592)">Inspection report is </text><text font-family="Amasis MT Pro Medium,Amasis MT Pro Medium_MSFontService,sans-serif" font-weight="500" font-size="46" transform="matrix(1 0 0 1 2102.49 1647)">generated and sent to </text><text font-family="Amasis MT Pro Medium,Amasis MT Pro Medium_MSFontService,sans-serif" font-weight="500" font-size="46" transform="matrix(1 0 0 1 2102.49 1702)">the client</text><text font-family="Amasis MT Pro Medium,Amasis MT Pro Medium_MSFontService,sans-serif" font-weight="500" font-size="46" transform="matrix(1 0 0 1 1900.34 553)">Sent to Digital services for </text><text font-family="Amasis MT Pro Medium,Amasis MT Pro Medium_MSFontService,sans-serif" font-weight="500" font-size="46" transform="matrix(1 0 0 1 1900.34 608)">detailed analytics and their </text><text font-family="Amasis MT Pro Medium,Amasis MT Pro Medium_MSFontService,sans-serif" font-weight="500" font-size="46" transform="matrix(1 0 0 1 1900.34 663)">product offerings through APIs</text></g></svg>