<?xml version="1.0" encoding="UTF-8" standalone="no"?>
<!-- Created with Inkscape (http://www.inkscape.org/) -->

<svg
   xmlns:dc="http://purl.org/dc/elements/1.1/"
   xmlns:cc="http://creativecommons.org/ns#"
   xmlns:rdf="http://www.w3.org/1999/02/22-rdf-syntax-ns#"
   xmlns:svg="http://www.w3.org/2000/svg"
   xmlns="http://www.w3.org/2000/svg"
   xmlns:sodipodi="http://sodipodi.sourceforge.net/DTD/sodipodi-0.dtd"
   xmlns:inkscape="http://www.inkscape.org/namespaces/inkscape"
   width="58mm"
   height="58mm"
   viewBox="0 0 58 58"
   version="1.1"
   id="svg4558"
   inkscape:version="0.92.4 (5da689c313, 2019-01-14)"
   sodipodi:docname="post-001-fig-3c.svg">
  <defs
     id="defs4552" />
  <sodipodi:namedview
     id="base"
     pagecolor="#ffffff"
     bordercolor="#666666"
     borderopacity="1.0"
     inkscape:pageopacity="0.0"
     inkscape:pageshadow="2"
     inkscape:zoom="1.4382812"
     inkscape:cx="124.9647"
     inkscape:cy="100.34749"
     inkscape:document-units="mm"
     inkscape:current-layer="g5127"
     showgrid="false"
     inkscape:window-width="1366"
     inkscape:window-height="705"
     inkscape:window-x="-8"
     inkscape:window-y="-8"
     inkscape:window-maximized="1" />
  <metadata
     id="metadata4555">
    <rdf:RDF>
      <cc:Work
         rdf:about="">
        <dc:format>image/svg+xml</dc:format>
        <dc:type
           rdf:resource="http://purl.org/dc/dcmitype/StillImage" />
        <dc:title></dc:title>
      </cc:Work>
    </rdf:RDF>
  </metadata>
  <g
     inkscape:label="Layer 1"
     inkscape:groupmode="layer"
     id="layer1"
     transform="translate(0,-239)">
    <g
       id="g5127"
       transform="matrix(0.26458333,0,0,0.26458333,-75.979141,-48.409654)">
      <rect
         style="opacity:0.5;fill:#ffffff;fill-opacity:1;stroke:#ffffff;stroke-width:11.17748451;stroke-linecap:square;stroke-linejoin:round;stroke-miterlimit:4;stroke-dasharray:none;stroke-dashoffset:0;stroke-opacity:1;paint-order:markers stroke fill"
         id="rect5152"
         width="223.36258"
         height="211.29259"
         x="283.06131"
         y="1091.1226" />
      <g
         id="g5857"
         transform="translate(-290.0667,674.577)">
        <g
           id="g5819">
          <g
             id="g5817">
            <g
               id="g5815">
              <path
                 id="path5813"
                 transform="matrix(1.00469,0,0,1,578,409)"
                 d="M 181.938,155.312 H 31.0625 V 57.6875 H 181.938 Z m -64.344,8.876 H 95.4062 c -1.3312,0 -2.2187,-0.888 -2.2187,-2.219 0,-1.332 0.8875,-2.219 2.2187,-2.219 h 22.1878 c 1.331,0 2.218,0.887 2.218,2.219 0,1.331 -0.887,2.219 -2.218,2.219 z M 106.5,48.8125 c 1.331,0 2.219,0.8875 2.219,2.2187 0,1.3313 -0.888,2.2188 -2.219,2.2188 -1.331,0 -2.219,-0.8875 -2.219,-2.2188 0,-1.3312 0.888,-2.2187 2.219,-2.2187 z M 186.375,44.375 H 26.625 c -4.8813,0 -8.875,3.9937 -8.875,8.875 v 106.5 c 0,4.881 3.9937,8.875 8.875,8.875 h 159.75 c 4.881,0 8.875,-3.994 8.875,-8.875 V 53.25 c 0,-4.8813 -3.994,-8.875 -8.875,-8.875 z"
                 inkscape:connector-curvature="0" />
            </g>
          </g>
        </g>
        <g
           id="g5829"
           style="fill:#000000;fill-opacity:1;stroke:#ffffff;stroke-opacity:1;stroke-width:2.6666667;stroke-miterlimit:4;stroke-dasharray:none">
          <g
             id="g5827"
             style="fill:#000000;fill-opacity:1;stroke:#ffffff;stroke-opacity:1;stroke-width:2.6666667;stroke-miterlimit:4;stroke-dasharray:none">
            <g
               id="g5825"
               style="fill:#000000;fill-opacity:1;stroke:#ffffff;stroke-opacity:1;stroke-width:2.6666667;stroke-miterlimit:4;stroke-dasharray:none">
              <path
                 id="path5821"
                 d="m 717,529.356 v -6.929 c -4.127,-5.307 -3.17,-12.954 2.136,-17.08 5.307,-4.127 12.954,-3.17 17.081,2.136 3.394,4.365 3.42,10.469 0.063,14.862 v 6.973 c 7.921,-5.34 10.014,-16.09 4.674,-24.011 -5.34,-7.921 -16.09,-10.013 -24.011,-4.674 -7.921,5.34 -10.013,16.09 -4.674,24.011 1.256,1.863 2.863,3.464 4.731,4.712 z"
                 inkscape:connector-curvature="0"
                 style="fill:#000000;fill-opacity:1;stroke:#ffffff;stroke-opacity:1;stroke-width:2.6666667;stroke-miterlimit:4;stroke-dasharray:none" />
              <path
                 id="path5823"
                 d="m 720.844,515.015 v 54.698 h -0.014 l -4.761,-21.416 c -0.733,-3.116 -3.854,-5.048 -6.97,-4.315 -3.062,0.72 -4.99,3.75 -4.346,6.829 l 6.955,31.293 c 0.296,1.325 1.048,2.504 2.125,3.331 l 12.812,9.853 v 8.743 h 33.613 v -5.796 c 0,-8.212 9.273,-8.841 9.273,-24.344 v -20.866 c 0.004,-3.837 -3.103,-6.95 -6.94,-6.954 -1.733,-0.002 -3.403,0.644 -4.685,1.811 0.02,-0.215 0.032,-0.432 0.032,-0.652 0.003,-3.839 -3.107,-6.953 -6.946,-6.956 -1.798,-10e-4 -3.526,0.695 -4.822,1.941 -0.845,-3.746 -4.566,-6.097 -8.311,-5.252 -3.174,0.716 -5.426,3.536 -5.422,6.789 v -28.737 c 0,-3.201 -2.596,-5.796 -5.797,-5.796 -3.201,0 -5.796,2.595 -5.796,5.796 z"
                 inkscape:connector-curvature="0"
                 style="fill:#000000;fill-opacity:1;stroke:#ffffff;stroke-opacity:1;stroke-width:2.6666667;stroke-miterlimit:4;stroke-dasharray:none" />
            </g>
          </g>
        </g>
        <g
           id="g5855">
          <g
             id="g5853">
            <g
               id="g5851">
              <path
                 id="path5831"
                 transform="matrix(1.00877,0,0,1,607,457)"
                 d="m 61.1562,19.5938 c 0.0252,-2.2596 -1.7781,-4.1159 -4.0375,-4.1563 H 57 c -2.2954,0 -4.1562,1.8608 -4.1562,4.1563 0,2.2954 1.8608,4.1562 4.1562,4.1562 2.2954,0 4.1562,-1.8608 4.1562,-4.1562 z m -2.375,-0.0202 c 0.0112,0.9837 -0.7772,1.7901 -1.7609,1.8013 -0.9837,0.0111 -1.7901,-0.7772 -1.8013,-1.761 -0.0112,-0.9837 0.7772,-1.7901 1.7609,-1.8013 0.0067,-10e-5 0.0135,-10e-5 0.0201,-10e-5 h 0.0772 c 0.9566,0.0163 1.7192,0.8044 1.704,1.7611 z"
                 inkscape:connector-curvature="0" />
              <path
                 id="path5833"
                 transform="matrix(1.00877,0,0,1,607,457)"
                 d="m 80.6978,41.2122 -1.6792,-1.6791 -8.6604,8.6592 -3.9104,-3.9092 -1.6792,1.6791 5.5896,5.5896 z"
                 inkscape:connector-curvature="0" />
              <path
                 id="path5835"
                 transform="matrix(1.00877,0,0,1,607,457)"
                 d="m 33.2488,43.9351 h 24.9375 v 2.375 H 33.2488 Z"
                 inkscape:connector-curvature="0" />
              <path
                 id="path5837"
                 transform="matrix(1.00877,0,0,1,607,457)"
                 d="m 80.6978,55.4646 -1.6792,-1.6792 -8.6604,8.6605 -3.9104,-3.9105 -1.6792,1.6792 5.5896,5.5895 z"
                 inkscape:connector-curvature="0" />
              <path
                 id="path5839"
                 transform="matrix(1.00877,0,0,1,607,457)"
                 d="m 33.2488,58.1875 h 24.9375 v 2.375 H 33.2488 Z"
                 inkscape:connector-curvature="0" />
              <path
                 id="path5841"
                 transform="matrix(1.00877,0,0,1,607,457)"
                 d="m 80.6978,69.7146 -1.6792,-1.6792 -8.6604,8.6605 -3.9104,-3.9105 -1.6792,1.6792 5.5896,5.5895 z"
                 inkscape:connector-curvature="0" />
              <path
                 id="path5843"
                 transform="matrix(1.00877,0,0,1,607,457)"
                 d="m 33.2488,72.4375 h 24.9375 v 2.375 H 33.2488 Z"
                 inkscape:connector-curvature="0" />
              <path
                 id="path5845"
                 transform="matrix(1.00877,0,0,1,607,457)"
                 d="m 80.6978,83.9646 -1.6792,-1.6792 -8.6604,8.6605 -3.9104,-3.9105 -1.6792,1.6792 5.5896,5.5895 z"
                 inkscape:connector-curvature="0" />
              <path
                 id="path5847"
                 transform="matrix(1.00877,0,0,1,607,457)"
                 d="m 33.2488,86.6875 h 24.9375 v 2.375 H 33.2488 Z"
                 inkscape:connector-curvature="0" />
              <path
                 id="path5849"
                 transform="matrix(1.00877,0,0,1,607,457)"
                 d="M 87.875,17.7876 H 70.0625 v -2.375 C 70.0586,12.1349 67.4026,9.47899 64.125,9.47506 h -14.25 c -3.2776,0.00393 -5.9336,2.65984 -5.9375,5.93754 v 2.375 H 26.125 c -2.6233,0 -4.75,2.1267 -4.75,4.75 V 99.75 c 0,2.623 2.1267,4.75 4.75,4.75 h 61.75 c 2.6233,0 4.75,-2.127 4.75,-4.75 V 22.5376 c 0,-2.6233 -2.1267,-4.75 -4.75,-4.75 z m -46.3125,2.375 h 4.75 v -4.75 c 0,-1.9676 1.5949,-3.5625 3.5625,-3.5625 h 14.25 c 1.9676,0 3.5625,1.5949 3.5625,3.5625 v 4.75 h 4.75 v 9.5249 H 41.5625 Z M 90.25,99.75 c 0,1.312 -1.0633,2.375 -2.375,2.375 h -61.75 c -1.3117,0 -2.375,-1.063 -2.375,-2.375 V 22.5376 c 0,-1.3118 1.0633,-2.375 2.375,-2.375 h 13.0625 v 11.8999 h 35.625 V 20.1626 H 87.875 c 1.3117,0 2.375,1.0632 2.375,2.375 z"
                 inkscape:connector-curvature="0" />
            </g>
          </g>
        </g>
      </g>
    </g>
  </g>
</svg>
